<?xml version="1.0" standalone="no"?>
<!DOCTYPE svg PUBLIC "-//W3C//DTD SVG 20010904//EN"
 "http://www.w3.org/TR/2001/REC-SVG-20010904/DTD/svg10.dtd">
<svg version="1.0" xmlns="http://www.w3.org/2000/svg"
 width="180.000000pt" height="180.000000pt" viewBox="0 0 180.000000 180.000000"
 preserveAspectRatio="xMidYMid meet">
<metadata>
Created by potrace 1.14, written by Peter Selinger 2001-2017
</metadata>
<g transform="translate(0.000000,180.000000) scale(0.100000,-0.100000)"
fill="#000000" stroke="none">
<path d="M27 1782 l-27 -3 0 -141 c0 -118 3 -145 17 -160 9 -10 11 -18 5 -18
-6 0 -13 6 -15 13 -3 6 -6 -322 -6 -730 l-1 -743 425 0 c333 0 425 3 426 13 1
6 3 82 4 167 2 85 3 159 4 163 1 5 19 -7 41 -25 223 -192 616 -130 788 124 37
54 70 126 77 171 3 16 8 34 12 40 11 17 2 196 -12 253 -29 113 -92 221 -182
312 -88 89 -151 125 -235 137 -52 8 -69 35 -23 35 31 0 93 30 117 56 26 29 37
67 39 133 2 58 7 67 37 59 10 -3 18 48 13 99 l-3 43 -422 1 c-231 0 -563 1
-736 2 -173 1 -327 1 -343 -1z"/>
</g>
</svg>
